Coordinates
version=1
nRows=19
nColumns=24
inDegrees=yes

Units are S.I. units (second, meters, Newtons, ...)
Angles are in degrees.

endheader
time	pelvis_tilt	pelvis_list	pelvis_rotation	pelvis_tx	pelvis_ty	pelvis_tz	hip_flexion_r	hip_adduction_r	hip_rotation_r	knee_angle_r	ankle_angle_r	subtalar_angle_r	mtp_angle_r	hip_flexion_l	hip_adduction_l	hip_rotation_l	knee_angle_l	ankle_angle_l	subtalar_angle_l	mtp_angle_l	lumbar_extension	lumbar_bending	lumbar_rotation
      1.28000000	      7.78628097	     -3.93865442	    -10.66995141	     -0.62650443	      0.97213312	      0.11283786	    -26.35516730	      1.17002142	    -11.97201375	    -10.84278566	     10.96347882	     18.84233500	      7.62632913	     18.50986562	     -8.77625616	    -36.60651079	     -9.79100703	     -2.31380735	      4.33070734	     17.15120398	    -10.68276003	     -6.08145072	    -13.24456084
      1.28500000	      7.79928719	     -3.94765532	    -10.82048688	     -0.61950903	      0.97116033	      0.11257764	    -26.68266597	      0.97516871	    -11.88066331	    -11.01056131	     10.47897798	     18.67928064	     10.33194266	     18.43663146	     -8.77746685	    -36.08720644	    -10.30428288	     -2.47964080	      3.89236561	     17.10323911	    -10.65178873	     -6.21170864	    -13.12947614
      1.29000000	      7.77020337	     -3.92666724	    -11.00518356	     -0.61251714	      0.97021928	      0.11231982	    -26.91771194	      0.73468290	    -11.72483565	    -11.29288255	     10.43683559	     18.59357427	     10.41257918	     18.39406233	     -8.76258186	    -35.60645486	    -10.80381441	     -2.75552567	      3.38309851	     17.10077599	    -10.56417788	     -6.36988333	    -12.98343856
      1.29500000	      7.73700661	     -3.89955499	    -11.14185591	     -0.60551049	      0.96934456	      0.11199113	    -27.13318528	      0.50894072	    -11.61243229	    -11.60046864	     10.33098682	     18.47201180	     10.62191542	     18.36966337	     -8.73357808	    -35.07721100	    -11.31812630	     -3.11712622	      2.80184630	     17.17147890	    -10.47940005	     -6.53148539	    -12.87670922
      1.30000000	      7.73114207	     -3.85391890	    -11.28639811	     -0.59847345	      0.96859692	      0.11164643	    -27.36648871	      0.25206251	    -11.49364608	    -11.88150865	      9.89964307	     18.27797851	     12.61021546	     18.30999387	     -8.68940045	    -34.61033669	    -11.82467081	     -3.64590529	      2.14389629	     18.19367220	    -10.41746070	     -6.71563097	    -12.73866427
      1.30500000	      7.68234510	     -3.79574228	    -11.39718858	     -0.59145329	      0.96790901	      0.11123723	    -27.51925680	      0.00519007	    -11.36225301	    -12.23557906	      9.63724593	     18.07446150	     13.04377681	     18.31183229	     -8.63893493	    -34.10843638	    -12.35083495	     -4.14875498	      1.50862055	     18.12380450	    -10.31828631	     -6.90300327	    -12.65005344
      1.31000000	      7.67189528	     -3.71816081	    -11.52742635	     -0.58443350	      0.96737614	      0.11080970	    -27.67468847	     -0.28581751	    -11.23247583	    -12.65226418	      9.43954581	     17.89048554	     13.31655746	     18.27383724	     -8.57643889	    -33.68882270	    -12.89505076	     -4.66249927	      0.79654011	     18.09384525	    -10.25756300	     -7.11351385	    -12.49399312
      1.31500000	      7.66321873	     -3.61852887	    -11.63091820	     -0.57736703	      0.96698304	      0.11034041	    -27.82213517	     -0.58621542	    -11.10337890	    -13.01774017	      8.69564445	     17.55698535	     16.07545720	     18.23333532	     -8.49197254	    -33.27344454	    -13.42652580	     -5.29090340	      0.09109060	     18.71868528	    -10.19641922	     -7.34878032	    -12.38027676
      1.32000000	      7.64503388	     -3.48834949	    -11.74468952	     -0.57029888	      0.96668509	      0.10986879	    -27.90793304	     -0.92518662	    -10.94603184	    -13.51164809	      8.39649936	     17.32761043	     16.19549260	     18.21255731	     -8.39594986	    -32.92877698	    -13.99645071	     -5.84009707	     -0.59460977	     18.61192912	    -10.11790979	     -7.61867971	    -12.25429114
      1.32500000	      7.63205341	     -3.36205078	    -11.79866103	     -0.56319742	      0.96650578	      0.10928737	    -27.99154465	     -1.23647538	    -10.85497596	    -13.96570639	      7.58682395	     16.92361090	     18.87586463	     18.20412186	     -8.29559618	    -32.53811366	    -14.59479929	     -6.39834880	     -1.26679501	     18.83284915	    -10.05581428	     -7.86731498	    -12.16393776
      1.33000000	      7.62920350	     -3.20745153	    -11.88045031	     -0.55607787	      0.96647330	      0.10872394	    -28.03453893	     -1.59719406	    -10.70265788	    -14.53163284	      7.13311312	     16.67269347	     18.98617551	     18.17379285	     -8.17889688	    -32.24841645	    -15.19892011	     -6.90758202	     -1.90891407	     18.73807096	     -9.99550879	     -8.15321227	    -12.05382464
      1.33500000	      7.62122381	     -3.06871368	    -11.87681349	     -0.54891353	      0.96651099	      0.10806153	    -28.06717984	     -1.90210857	    -10.65184762	    -15.06372168	      6.15352307	     16.22052788	     21.90786981	     18.17207850	     -8.06705556	    -31.88371946	    -15.84099070	     -7.38732532	     -2.49194295	     18.90394772	     -9.94366298	     -8.40568148	    -11.98674098
      1.34000000	      7.64704202	     -2.89222770	    -11.92682959	     -0.54171175	      0.96672389	      0.10744836	    -28.08247172	     -2.28395430	    -10.51439307	    -15.70212962	      5.53228057	     15.98005938	     21.99877511	     18.10188575	     -7.92265151	    -31.67016256	    -16.46090768	     -7.78367289	     -3.01679556	     18.82257616	     -9.91074490	     -8.71514642	    -11.88848804
      1.34500000	      7.65954550	     -2.74570789	    -11.88658464	     -0.53448452	      0.96697648	      0.10669498	    -28.07073564	     -2.59769323	    -10.49482737	    -16.32456406	      4.39630464	     15.48210727	     25.38082050	     18.07082878	     -7.79034487	    -31.38445211	    -17.12436365	     -8.10915193	     -3.51496247	     18.86029536	     -9.88457762	     -8.96157062	    -11.84032467
      1.35000000	      7.66642450	     -2.59920290	    -11.83208581	     -0.52723988	      0.96733819	      0.10592422	    -28.01053653	     -2.90901068	    -10.45670025	    -17.03262363	      3.40105576	     15.09847953	     27.05625015	     18.02158884	     -7.64759648	    -31.12391309	    -17.74685898	     -8.41893715	     -3.91667648	     18.80592437	     -9.85299363	     -9.20167345	    -11.79271141
      1.35500000	      7.69719880	     -2.45602931	    -11.75889180	     -0.51995801	      0.96780109	      0.10512524	    -27.94497328	     -3.22041416	    -10.43538121	    -17.77596415	      2.29462760	     14.72433833	     28.95724607	     17.92961591	     -7.49205484	    -30.91242280	    -18.35474534	     -8.63603839	     -4.28109245	     18.76256306	     -9.85098687	     -9.43794525	    -11.76305430
      1.36000000	      7.73660139	     -2.31129554	    -11.67767802	     -0.51262621	      0.96836173	      0.10431443	    -27.84759808	     -3.54117867	    -10.43030292	    -18.60682320	      1.33991031	     14.52988029	     28.93942110	     17.79975150	     -7.32591369	    -30.76953876	    -18.93458262	     -8.73554513	     -4.48366492	     18.74062805	     -9.85154780	     -9.66785539	    -11.71542442
      1.36500000	      7.76146185	     -2.21493891	    -11.50980949	     -0.50536869	      0.96897038	      0.10335907	    -27.70750053	     -3.77507982	    -10.44605071	    -19.42548556	     -0.12025705	     13.98599867	     32.38533327	     17.67880009	     -7.15826480	    -30.48520031	    -19.45177440	     -8.90492209	     -4.83980438	     18.64163858	     -9.87447558	     -9.82297204	    -11.75843709
      1.37000000	      7.80382763	     -2.12497198	    -11.33302305	     -0.49807230	      0.96968092	      0.10240783	    -27.54721375	     -4.00890179	    -10.46672726	    -20.32270574	     -1.43985553	     13.58973382	     33.96528060	     17.50870764	     -6.98695750	    -30.27549396	    -19.94251518	     -8.93048169	     -5.05178274	     18.58765123	     -9.91496096	     -9.96883545	    -11.80136805
